<?xml version="1.0" standalone="no"?><!DOCTYPE svg PUBLIC "-//W3C//DTD SVG 1.1//EN" "http://www.w3.org/Graphics/SVG/1.1/DTD/svg11.dtd"><svg t="1692598912832" class="icon" viewBox="0 0 1024 1024" version="1.1" xmlns="http://www.w3.org/2000/svg" p-id="4331" xmlns:xlink="http://www.w3.org/1999/xlink" width="16" height="16"><path d="M632.923387 256.150456a35.932585 35.932585 0 0 1 35.88604 20.386622 35.001689 35.001689 0 0 1-7.121354 40.121616L170.174998 800.631511c95.230658 107.053037 235.935585 163.232609 377.292139 150.712058 243.894745-21.736421 424.488564-234.72542 402.612508-474.896581a35.699861 35.699861 0 0 1 32.674449-38.539093 36.211853 36.211853 0 0 1 39.097631 32.162456c25.599639 279.268792-184.317403 526.887121-468.054496 552.021312-14.801246 1.210165-29.928306 1.908337-44.822641 1.908337-161.650086 0-317.342437-76.33347-416.343224-204.238577a35.280957 35.280957 0 0 1 3.258136-46.637888l444.409738-437.381473-106.820313 9.448594a36.165309 36.165309 0 0 1-39.190721-32.162456 35.699861 35.699861 0 0 1 32.720994-38.539093zM467.596262 2.015855A514.692384 514.692384 0 0 1 962.553651 264.109617c7.819526 13.96344 5.259562 31.650463-6.004279 42.960849l-443.292662 444.177014 114.639839-2.32724a35.699861 35.699861 0 0 1 25.134191 9.21587 36.770391 36.770391 0 0 1 11.403476 26.018542 35.88604 35.88604 0 0 1-35.141323 36.723847l-203.773129 4.002852a36.118764 36.118764 0 0 1-33.698434-21.876055 35.560226 35.560226 0 0 1 7.586802-39.469989L885.987457 276.025085a439.522534 439.522534 0 0 0-411.921468-202.33024A438.265824 438.265824 0 0 0 174.36403 230.87663a440.779244 440.779244 0 0 0-100.816034 323.393262c2.746143 29.928306 8.378064 59.623887 16.988852 88.062759 2.792688 9.21587 1.861792 18.897188-2.792688 27.414886a35.932585 35.932585 0 0 1-66.093614-6.79554 518.509057 518.509057 0 0 1-19.548816-102.212378c-12.334372-136.841708 29.276678-270.378736 117.292893-375.942339a509.525911 509.525911 0 0 1 348.155094-182.781425z" p-id="4332"></path></svg>