<?xml version="1.0" standalone="no"?><!DOCTYPE svg PUBLIC "-//W3C//DTD SVG 1.1//EN" "http://www.w3.org/Graphics/SVG/1.1/DTD/svg11.dtd"><svg t="1693968071874" class="icon" viewBox="0 0 1024 1024" version="1.1" xmlns="http://www.w3.org/2000/svg" p-id="8156" xmlns:xlink="http://www.w3.org/1999/xlink" width="16" height="16"><path d="M789.333333 426.666667l187.733334 469.333333h-91.932445l-51.256889-128h-174.478222l-51.2 128H516.323556l187.676444-469.333333h85.333333zM426.666667 85.333333V170.666667H682.666667v85.333333h-83.968a777.443556 777.443556 0 0 1-154.453334 268.856889 634.311111 634.311111 0 0 0 99.669334 72.817778l-32.028445 80.156444c-45.852444-26.055111-88.746667-56.945778-127.886222-92.216889a711.68 711.68 0 0 1-264.533333 151.324445l-22.926223-82.261334a627.2 627.2 0 0 0 227.271112-129.763555A771.356444 771.356444 0 0 1 203.377778 341.333333h95.573333c23.779556 43.918222 52.337778 85.048889 85.048889 122.766223A689.720889 689.720889 0 0 0 508.131556 256L85.333333 256V170.666667H341.333333V85.333333h85.333334z m320 464.440889L693.475556 682.666667h106.325333l-53.134222-132.892445z" fill="#000000" fill-opacity=".65" p-id="8157"></path></svg>